<svg xmlns="http://www.w3.org/2000/svg" viewBox="0 0 64 64">
  <rect width="64" height="64" rx="14" fill="#4f6df5"/>
  <g fill="#fff">
    <rect x="10" y="10" width="16" height="16" rx="3"/>
    <rect x="38" y="10" width="16" height="16" rx="3"/>
    <rect x="10" y="38" width="16" height="16" rx="3"/>
    <rect x="14" y="14" width="8" height="8" rx="1.5" fill="#4f6df5"/>
    <rect x="42" y="14" width="8" height="8" rx="1.5" fill="#4f6df5"/>
    <rect x="14" y="42" width="8" height="8" rx="1.5" fill="#4f6df5"/>
    <rect x="32" y="32" width="6" height="6" rx="1"/>
    <rect x="42" y="32" width="6" height="6" rx="1"/>
    <rect x="52" y="32" width="2" height="6" rx="0.5"/>
    <rect x="32" y="42" width="6" height="6" rx="1"/>
    <rect x="42" y="42" width="6" height="6" rx="1"/>
    <rect x="32" y="52" width="6" height="2" rx="0.5"/>
    <rect x="42" y="52" width="6" height="2" rx="0.5"/>
  </g>
</svg>
