<svg xmlns="http://www.w3.org/2000/svg" viewBox="0 0 192 192">
  <rect width="192" height="192" rx="42" fill="#4f6df5"/>
  <g fill="#fff">
    <rect x="32" y="32" width="48" height="48" rx="9"/>
    <rect x="42" y="42" width="28" height="28" rx="4" fill="#4f6df5"/>
    <rect x="50" y="50" width="12" height="12" rx="2" fill="#fff"/>

    <rect x="112" y="32" width="48" height="48" rx="9"/>
    <rect x="122" y="42" width="28" height="28" rx="4" fill="#4f6df5"/>
    <rect x="130" y="50" width="12" height="12" rx="2" fill="#fff"/>

    <rect x="32" y="112" width="48" height="48" rx="9"/>
    <rect x="42" y="122" width="28" height="28" rx="4" fill="#4f6df5"/>
    <rect x="50" y="130" width="12" height="12" rx="2" fill="#fff"/>

    <rect x="92" y="92" width="16" height="16" rx="3"/>
    <rect x="116" y="92" width="16" height="16" rx="3"/>
    <rect x="140" y="92" width="20" height="16" rx="3"/>
    <rect x="92" y="116" width="16" height="16" rx="3"/>
    <rect x="116" y="116" width="16" height="16" rx="3"/>
    <rect x="92" y="140" width="16" height="20" rx="3"/>
    <rect x="116" y="140" width="44" height="20" rx="3"/>
  </g>
</svg>
