<svg xmlns="http://www.w3.org/2000/svg" viewBox="0 0 512 512">
  <rect width="512" height="512" fill="#4f6df5"/>
  <g fill="#fff" transform="translate(60 60) scale(0.766)">
    <rect x="32" y="32" width="128" height="128" rx="24"/>
    <rect x="58" y="58" width="76" height="76" rx="10" fill="#4f6df5"/>
    <rect x="80" y="80" width="32" height="32" rx="5" fill="#fff"/>

    <rect x="244" y="32" width="128" height="128" rx="24"/>
    <rect x="270" y="58" width="76" height="76" rx="10" fill="#4f6df5"/>
    <rect x="292" y="80" width="32" height="32" rx="5" fill="#fff"/>

    <rect x="32" y="244" width="128" height="128" rx="24"/>
    <rect x="58" y="270" width="76" height="76" rx="10" fill="#4f6df5"/>
    <rect x="80" y="292" width="32" height="32" rx="5" fill="#fff"/>

    <rect x="192" y="192" width="42" height="42" rx="8"/>
    <rect x="254" y="192" width="42" height="42" rx="8"/>
    <rect x="316" y="192" width="56" height="42" rx="8"/>
    <rect x="192" y="254" width="42" height="42" rx="8"/>
    <rect x="254" y="254" width="42" height="42" rx="8"/>
    <rect x="192" y="316" width="42" height="56" rx="8"/>
    <rect x="254" y="316" width="118" height="56" rx="8"/>
  </g>
</svg>
