<svg xmlns="http://www.w3.org/2000/svg" viewBox="0 0 512 512">
  <rect width="512" height="512" rx="112" fill="#4f6df5"/>
  <g fill="#fff">
    <rect x="86" y="86" width="128" height="128" rx="24"/>
    <rect x="112" y="112" width="76" height="76" rx="10" fill="#4f6df5"/>
    <rect x="134" y="134" width="32" height="32" rx="5" fill="#fff"/>

    <rect x="298" y="86" width="128" height="128" rx="24"/>
    <rect x="324" y="112" width="76" height="76" rx="10" fill="#4f6df5"/>
    <rect x="346" y="134" width="32" height="32" rx="5" fill="#fff"/>

    <rect x="86" y="298" width="128" height="128" rx="24"/>
    <rect x="112" y="324" width="76" height="76" rx="10" fill="#4f6df5"/>
    <rect x="134" y="346" width="32" height="32" rx="5" fill="#fff"/>

    <rect x="246" y="246" width="42" height="42" rx="8"/>
    <rect x="308" y="246" width="42" height="42" rx="8"/>
    <rect x="370" y="246" width="56" height="42" rx="8"/>
    <rect x="246" y="308" width="42" height="42" rx="8"/>
    <rect x="308" y="308" width="42" height="42" rx="8"/>
    <rect x="246" y="370" width="42" height="56" rx="8"/>
    <rect x="308" y="370" width="118" height="56" rx="8"/>
  </g>
</svg>
